<?xml version="1.0" standalone="no"?><!DOCTYPE svg PUBLIC "-//W3C//DTD SVG 1.1//EN" "http://www.w3.org/Graphics/SVG/1.1/DTD/svg11.dtd"><svg t="1710145367039" class="icon" viewBox="0 0 1024 1024" version="1.1" xmlns="http://www.w3.org/2000/svg" p-id="4454" width="32" height="32" xmlns:xlink="http://www.w3.org/1999/xlink"><path d="M686.999439 765.01224L571.922545 876.249137c-19.872982 19.936982-47.393956 28.256974-77.799927 28.256974s-57.890946-8.319992-77.827928-28.256974l-184.836829-186.149827c-19.936982-19.936982-29.952972-49.057954-29.952972-79.491926s10.016991-57.890946 29.952972-77.827928l184.299829-186.888827c19.936982-19.936982 47.999955-27.520974 78.371928-27.520974s57.890946 8.319992 77.799927 28.256973l115.069894 111.203897c21.92098 21.98498 58.242946 21.21698 81.059924-1.631998 22.816979-22.880979 23.584978-59.170945 1.663999-81.123925L658.389465 262.588706a215.3778 215.3778 0 0 0-102.884904-56.770947l-1.439999-0.288L659.322464 98.741858c22.01698-21.92098 21.24898-58.274946-1.567998-81.123924s-59.170945-23.552978-81.155925-1.631999l-430.9636 430.9996C103.77198 488.871496 81.883 546.699443 81.883 610.605384s21.88898 123.525885 63.746941 165.351846l185.480828 186.088827c41.857961 41.760961 99.711907 61.952943 163.591848 61.952943s121.732887-21.85598 163.619848-63.745941l111.335897-112.516895c21.92098-21.92098 21.15298-58.242946-1.663999-81.059925s-59.138945-23.584978-81.027924-1.663999z m200.936813-209.929805H455.052654c-29.952972 0-54.17895 25.760976-54.17895 57.442947s24.224978 57.442947 54.17895 57.442946h432.883598c29.920972 0 54.17895-25.760976 54.17895-57.442946s-24.292977-57.442947-54.17895-57.442947z" fill="#F89F1B" p-id="4455"></path></svg>
